<svg xmlns="http://www.w3.org/2000/svg" width="928" height="928" fill="none"><path fill="url(#a)" d="M279.433 424.318c-6.462-22.369-18.507-43.467-36.135-61.096-55.658-55.657-145.897-55.657-201.555 0-55.657 55.658-55.657 145.897 0 201.555 17.629 17.629 38.727 29.674 61.096 36.135 11.634 3.707 25.021 6.589 39.622 9.734 48.304 10.401 109.904 23.665 165.334 79.095 0 0 8.063-18.14 25.195-35.272 17.132-17.132 35.272-25.195 35.272-25.195-55.43-55.429-68.694-117.03-79.096-165.333-3.144-14.602-6.026-27.989-9.733-39.623z"/><path fill="url(#b)" d="M648.567 503.682c6.462 22.369 18.507 43.466 36.135 61.095 55.658 55.658 145.897 55.658 201.555 0 55.657-55.658 55.657-145.897 0-201.555-17.629-17.628-38.727-29.673-61.096-36.135-11.634-3.706-25.021-6.589-39.622-9.733-48.304-10.401-109.904-23.666-165.334-79.095 0 0-8.063 18.139-25.195 35.272-17.132 17.132-35.272 25.194-35.272 25.194 55.43 55.43 68.694 117.03 79.096 165.334 3.144 14.602 6.026 27.989 9.733 39.623z"/><path fill="url(#c)" d="M327.088 102.838c6.462-22.37 18.507-43.467 36.135-61.096 55.658-55.657 145.897-55.657 201.555 0 55.658 55.658 55.658 145.897 0 201.555-17.629 17.629-38.727 29.674-61.096 36.135-11.634 3.707-25.02 6.589-39.622 9.733-48.304 10.402-109.904 23.666-165.334 79.096 0 0-8.062-18.14-25.194-35.272-17.132-17.132-35.272-25.195-35.272-25.195 55.429-55.429 68.694-117.03 79.095-165.333 3.144-14.602 6.027-27.989 9.733-39.623z"/><path fill="url(#d)" d="M600.912 825.162c-6.462 22.369-18.507 43.466-36.135 61.095-55.658 55.658-145.897 55.658-201.555 0-55.658-55.658-55.658-145.897 0-201.555 17.629-17.628 38.727-29.673 61.096-36.135 11.634-3.706 25.02-6.589 39.622-9.733 48.304-10.401 109.904-23.666 165.334-79.095 0 0 8.062 18.139 25.194 35.272 17.132 17.132 35.272 25.194 35.272 25.194-55.43 55.43-68.694 117.03-79.095 165.334-3.144 14.602-6.027 27.989-9.733 39.623z"/><path stroke="#000" stroke-linejoin="round" stroke-opacity=".1" stroke-width="3.489" d="m277.757 424.802.014.045c3.676 11.538 6.541 24.836 9.69 39.461l.016.075c10.294 47.804 23.481 109.045 77.827 164.385-.291.147-.608.309-.949.486a123.83 123.83 0 0 0-8.227 4.712c-6.758 4.208-15.689 10.586-24.372 19.269-8.683 8.684-15.061 17.614-19.269 24.372a123.83 123.83 0 0 0-4.712 8.227c-.177.341-.339.658-.486.949-55.341-54.346-116.582-67.533-164.385-77.826l-.075-.017c-14.625-3.149-27.922-6.014-39.46-9.69l-.046-.014c-22.093-6.381-42.931-18.277-60.346-35.692C-12 508.567-12 419.432 42.977 364.456c54.976-54.977 144.111-54.977 199.087 0 17.415 17.415 29.311 38.253 35.693 60.346zm372.486 78.395-.014-.045c-3.676-11.538-6.541-24.836-9.69-39.46l-.016-.076c-10.294-47.803-23.481-109.044-77.827-164.384.291-.147.608-.31.949-.487a123.83 123.83 0 0 0 8.227-4.712c6.758-4.208 15.689-10.586 24.372-19.269 8.683-8.683 15.061-17.614 19.269-24.372a123.575 123.575 0 0 0 4.712-8.227c.177-.341.339-.657.486-.948 55.341 54.346 116.582 67.533 164.385 77.826l.075.016c14.625 3.149 27.922 6.014 39.46 9.69l.017.006.029.008c22.093 6.382 42.931 18.278 60.346 35.693 54.977 54.976 54.977 144.111 0 199.088-54.976 54.976-144.111 54.976-199.087 0-17.415-17.415-29.311-38.253-35.693-60.347zM328.75 103.367c.003-.01.007-.019.009-.029l.005-.016c6.382-22.093 18.278-42.931 35.693-60.346 54.976-54.977 144.111-54.977 199.088 0 54.976 54.976 54.976 144.111 0 199.087-17.415 17.416-38.254 29.312-60.347 35.693l-.046.014c-11.537 3.676-24.835 6.541-39.459 9.69l-.076.016c-47.803 10.294-109.044 23.481-164.384 77.827-.147-.291-.31-.608-.487-.949a123.83 123.83 0 0 0-4.712-8.227c-4.208-6.758-10.586-15.689-19.269-24.372-8.683-8.683-17.614-15.061-24.372-19.269a123.575 123.575 0 0 0-8.227-4.712 97.183 97.183 0 0 0-.948-.486c54.346-55.34 67.533-116.581 77.826-164.385l.016-.075c3.149-14.625 6.014-27.923 9.69-39.461zm270.5 721.265-.014.045c-6.382 22.094-18.278 42.932-35.693 60.346-54.976 54.977-144.111 54.977-199.088 0-54.976-54.976-54.976-144.111 0-199.087 17.415-17.415 38.254-29.311 60.347-35.693l.046-.014c11.537-3.676 24.835-6.541 39.459-9.69l.076-.016c47.803-10.293 109.044-23.48 164.384-77.826.147.291.31.607.487.948a123.575 123.575 0 0 0 4.712 8.227c4.208 6.758 10.586 15.689 19.269 24.372 8.683 8.683 17.614 15.061 24.372 19.269a123.575 123.575 0 0 0 8.227 4.712c.341.177.657.34.948.487-54.346 55.34-67.533 116.581-77.826 164.384l-.016.076c-3.149 14.624-6.014 27.922-9.69 39.46z"/><defs><linearGradient id="a" x1="416.035" x2="393.734" y1="964.232" y2="-97.798" gradientUnits="userSpaceOnUse"><stop stop-color="#FF004F"/><stop offset="1" stop-color="#FF0581"/></linearGradient><linearGradient id="b" x1="416.035" x2="393.734" y1="964.232" y2="-97.798" gradientUnits="userSpaceOnUse"><stop stop-color="#FF004F"/><stop offset="1" stop-color="#FF0581"/></linearGradient><linearGradient id="c" x1="416.035" x2="393.734" y1="964.232" y2="-97.798" gradientUnits="userSpaceOnUse"><stop stop-color="#FF004F"/><stop offset="1" stop-color="#FF0581"/></linearGradient><linearGradient id="d" x1="416.035" x2="393.734" y1="964.232" y2="-97.798" gradientUnits="userSpaceOnUse"><stop stop-color="#FF004F"/><stop offset="1" stop-color="#FF0581"/></linearGradient></defs></svg>